<svg width="16" height="16" viewBox="0 0 16 16" fill="none" xmlns="http://www.w3.org/2000/svg">
<mask id="mask0_26_26689" style="mask-type:alpha" maskUnits="userSpaceOnUse" x="0" y="0" width="16" height="16">
<path d="M14.0806 10.3706C13.5381 9.4375 13.25 8.09812 13.25 6.5C13.25 5.10761 12.6969 3.77226 11.7123 2.78769C10.7278 1.80312 9.3924 1.25 8.00002 1.25C6.60763 1.25 5.27227 1.80312 4.28771 2.78769C3.30314 3.77226 2.75002 5.10761 2.75002 6.5C2.75002 8.09875 2.46314 9.4375 1.92064 10.3706C1.80994 10.561 1.75126 10.7771 1.7505 10.9972C1.74973 11.2174 1.8069 11.4339 1.91627 11.625C2.02494 11.8162 2.18268 11.9749 2.3732 12.0848C2.56371 12.1947 2.7801 12.2517 3.00002 12.25H5.26127C5.32328 12.9335 5.63865 13.5691 6.14541 14.032C6.65217 14.4949 7.31369 14.7515 8.00002 14.7515C8.68635 14.7515 9.34787 14.4949 9.85463 14.032C10.3614 13.5691 10.6768 12.9335 10.7388 12.25H13C13.2196 12.2514 13.4356 12.1942 13.6258 12.0843C13.8159 11.9745 13.9734 11.8159 14.0819 11.625C14.1917 11.4342 14.2494 11.2178 14.2492 10.9976C14.249 10.7775 14.1909 10.5612 14.0806 10.3706ZM8.00002 13.25C7.71185 13.2501 7.43252 13.1506 7.20929 12.9683C6.98606 12.7861 6.83265 12.5323 6.77502 12.25H9.22502C9.16739 12.5323 9.01397 12.7861 8.79074 12.9683C8.56751 13.1506 8.28818 13.2501 8.00002 13.25ZM3.41627 10.75C3.96939 9.625 4.25002 8.19625 4.25002 6.5C4.25002 5.50544 4.64511 4.55161 5.34837 3.84835C6.05163 3.14509 7.00546 2.75 8.00002 2.75C8.99458 2.75 9.94841 3.14509 10.6517 3.84835C11.3549 4.55161 11.75 5.50544 11.75 6.5C11.75 8.19562 12.03 9.625 12.5831 10.75H3.41627Z" fill="#2F2F37"/>
</mask>
<g mask="url(#mask0_26_26689)">
<rect width="16" height="16" fill="#1E1E24"/>
</g>
</svg>
