<svg width="16" height="16" viewBox="0 0 16 16" fill="none" xmlns="http://www.w3.org/2000/svg">
<mask id="mask0_55_2738" style="mask-type:alpha" maskUnits="userSpaceOnUse" x="0" y="0" width="16" height="16">
<path d="M14.75 13C14.75 13.1989 14.671 13.3897 14.5303 13.5303C14.3897 13.671 14.1989 13.75 14 13.75H2C1.80109 13.75 1.61032 13.671 1.46967 13.5303C1.32902 13.3897 1.25 13.1989 1.25 13V3C1.25 2.80109 1.32902 2.61032 1.46967 2.46967C1.61032 2.32902 1.80109 2.25 2 2.25C2.19891 2.25 2.38968 2.32902 2.53033 2.46967C2.67098 2.61032 2.75 2.80109 2.75 3V8.34688L5.50625 5.9375C5.63564 5.82429 5.80001 5.75897 5.97181 5.75249C6.14362 5.746 6.31244 5.79874 6.45 5.90188L9.96375 8.53687L13.5063 5.4375C13.5788 5.36507 13.6655 5.30828 13.7609 5.27065C13.8562 5.23303 13.9583 5.21536 14.0608 5.21874C14.1633 5.22212 14.264 5.24648 14.3567 5.29031C14.4494 5.33413 14.5321 5.39651 14.5997 5.47357C14.6674 5.55062 14.7185 5.64074 14.7499 5.73833C14.7814 5.83593 14.7925 5.93893 14.7826 6.04098C14.7726 6.14304 14.7419 6.24197 14.6922 6.33167C14.6425 6.42137 14.575 6.49993 14.4937 6.5625L10.4937 10.0625C10.3644 10.1757 10.2 10.241 10.0282 10.2475C9.85638 10.254 9.68756 10.2013 9.55 10.0981L6.03625 7.465L2.75 10.3406V12.25H14C14.1989 12.25 14.3897 12.329 14.5303 12.4697C14.671 12.6103 14.75 12.8011 14.75 13Z" fill="#1A1A1A"/>
</mask>
<g mask="url(#mask0_55_2738)">
<rect width="16" height="16" fill="#1E1E24"/>
</g>
</svg>
