<svg width="16" height="16" viewBox="0 0 16 16" fill="none" xmlns="http://www.w3.org/2000/svg">
<mask id="mask0_55_2750" style="mask-type:alpha" maskUnits="userSpaceOnUse" x="0" y="0" width="16" height="16">
<path d="M14.4288 6.82808L10.5738 5.4262L9.17189 1.5712C9.08445 1.33062 8.92508 1.12278 8.71543 0.975903C8.50577 0.82903 8.25599 0.750244 8.00001 0.750244C7.74403 0.750244 7.49425 0.82903 7.2846 0.975903C7.07495 1.12278 6.91558 1.33062 6.82814 1.5712L5.42626 5.4262L1.57126 6.82808C1.33068 6.91552 1.12284 7.07488 0.975964 7.28454C0.829091 7.49419 0.750305 7.74397 0.750305 7.99995C0.750305 8.25593 0.829091 8.50571 0.975964 8.71536C1.12284 8.92502 1.33068 9.08439 1.57126 9.17183L5.42626 10.5737L6.82814 14.4287C6.91558 14.6693 7.07495 14.8771 7.2846 15.024C7.49425 15.1709 7.74403 15.2497 8.00001 15.2497C8.25599 15.2497 8.50577 15.1709 8.71543 15.024C8.92508 14.8771 9.08445 14.6693 9.17189 14.4287L10.5738 10.5737L14.4288 9.17183C14.6693 9.08439 14.8772 8.92502 15.0241 8.71536C15.1709 8.50571 15.2497 8.25593 15.2497 7.99995C15.2497 7.74397 15.1709 7.49419 15.0241 7.28454C14.8772 7.07488 14.6693 6.91552 14.4288 6.82808ZM9.73251 9.2837C9.62946 9.32115 9.53587 9.38074 9.45833 9.45827C9.3808 9.53581 9.32121 9.6294 9.28376 9.73245L8.00001 13.2631L6.71626 9.73245C6.67881 9.6294 6.61922 9.53581 6.54169 9.45827C6.46416 9.38074 6.37057 9.32115 6.26751 9.2837L2.73689 7.99995L6.26751 6.7162C6.37057 6.67875 6.46416 6.61916 6.54169 6.54163C6.61922 6.4641 6.67881 6.37051 6.71626 6.26745L8.00001 2.73683L9.28376 6.26745C9.32121 6.37051 9.3808 6.4641 9.45833 6.54163C9.53587 6.61916 9.62946 6.67875 9.73251 6.7162L13.2631 7.99995L9.73251 9.2837Z" fill="#2F2F37"/>
</mask>
<g mask="url(#mask0_55_2750)">
<rect width="16" height="16" fill="#1E1E24"/>
</g>
</svg>

