<svg width="16" height="16" viewBox="0 0 16 16" fill="none" xmlns="http://www.w3.org/2000/svg">
<mask id="mask0_26_26695" style="mask-type:alpha" maskUnits="userSpaceOnUse" x="0" y="0" width="16" height="16">
<path d="M13.8838 6.61562L8.88376 1.61562C8.64935 1.38128 8.33146 1.24963 8.00001 1.24963C7.66855 1.24963 7.35067 1.38128 7.11626 1.61562L2.11626 6.61562C1.99971 6.73145 1.90732 6.86927 1.84445 7.02108C1.78158 7.17289 1.74948 7.33568 1.75001 7.49999V13.5C1.75001 13.6989 1.82902 13.8897 1.96968 14.0303C2.11033 14.171 2.30109 14.25 2.50001 14.25H6.50001C6.69892 14.25 6.88968 14.171 7.03034 14.0303C7.17099 13.8897 7.25001 13.6989 7.25001 13.5V10.25H8.75001V13.5C8.75001 13.6989 8.82902 13.8897 8.96968 14.0303C9.11033 14.171 9.30109 14.25 9.50001 14.25H13.5C13.6989 14.25 13.8897 14.171 14.0303 14.0303C14.171 13.8897 14.25 13.6989 14.25 13.5V7.49999C14.2505 7.33568 14.2184 7.17289 14.1556 7.02108C14.0927 6.86927 14.0003 6.73145 13.8838 6.61562ZM12.75 12.75H10.25V9.49999C10.25 9.30108 10.171 9.11031 10.0303 8.96966C9.88968 8.82901 9.69892 8.74999 9.50001 8.74999H6.50001C6.30109 8.74999 6.11033 8.82901 5.96968 8.96966C5.82902 9.11031 5.75001 9.30108 5.75001 9.49999V12.75H3.25001V7.60312L8.00001 2.85312L12.75 7.60312V12.75Z" fill="#2F2F37"/>
</mask>
<g mask="url(#mask0_26_26695)">
<rect width="16" height="16" fill="#1E1E24"/>
</g>
</svg>
