<svg width="16" height="16" viewBox="0 0 16 16" fill="none" xmlns="http://www.w3.org/2000/svg">
<mask id="mask0_26_26719" style="mask-type:alpha" maskUnits="userSpaceOnUse" x="0" y="0" width="16" height="16">
<path d="M5.75 6.75C5.75 6.55109 5.82902 6.36032 5.96967 6.21967C6.11032 6.07902 6.30109 6 6.5 6H11C11.1989 6 11.3897 6.07902 11.5303 6.21967C11.671 6.36032 11.75 6.55109 11.75 6.75C11.75 6.94891 11.671 7.13968 11.5303 7.28033C11.3897 7.42098 11.1989 7.5 11 7.5H6.5C6.30109 7.5 6.11032 7.42098 5.96967 7.28033C5.82902 7.13968 5.75 6.94891 5.75 6.75ZM6.5 10H11C11.1989 10 11.3897 9.92098 11.5303 9.78033C11.671 9.63968 11.75 9.44891 11.75 9.25C11.75 9.05109 11.671 8.86032 11.5303 8.71967C11.3897 8.57902 11.1989 8.5 11 8.5H6.5C6.30109 8.5 6.11032 8.57902 5.96967 8.71967C5.82902 8.86032 5.75 9.05109 5.75 9.25C5.75 9.44891 5.82902 9.63968 5.96967 9.78033C6.11032 9.92098 6.30109 10 6.5 10ZM14.75 4V11.5C14.75 11.7298 14.7047 11.9574 14.6168 12.1697C14.5288 12.382 14.3999 12.5749 14.2374 12.7374C14.0749 12.8999 13.882 13.0288 13.6697 13.1168C13.4574 13.2047 13.2298 13.25 13 13.25H2.25C1.71957 13.25 1.21086 13.0393 0.835786 12.6642C0.460714 12.2891 0.25 11.7804 0.25 11.25V5.5C0.25 5.30109 0.329018 5.11032 0.46967 4.96967C0.610322 4.82902 0.801088 4.75 1 4.75C1.19891 4.75 1.38968 4.82902 1.53033 4.96967C1.67098 5.11032 1.75 5.30109 1.75 5.5V11.25C1.75 11.3826 1.80268 11.5098 1.89645 11.6036C1.99021 11.6973 2.11739 11.75 2.25 11.75C2.38261 11.75 2.50979 11.6973 2.60355 11.6036C2.69732 11.5098 2.75 11.3826 2.75 11.25V4C2.75 3.66848 2.8817 3.35054 3.11612 3.11612C3.35054 2.8817 3.66848 2.75 4 2.75H13.5C13.8315 2.75 14.1495 2.8817 14.3839 3.11612C14.6183 3.35054 14.75 3.66848 14.75 4ZM13.25 4.25H4.25V11.25C4.25033 11.4186 4.22933 11.5866 4.1875 11.75H13C13.0663 11.75 13.1299 11.7237 13.1768 11.6768C13.2237 11.6299 13.25 11.5663 13.25 11.5V4.25Z" fill="#1A1A1A"/>
</mask>
<g mask="url(#mask0_26_26719)">
<rect width="16" height="16" fill="#1E1E24"/>
</g>
</svg>
