<svg width="16" height="16" viewBox="0 0 16 16" fill="none" xmlns="http://www.w3.org/2000/svg">
<mask id="mask0_26_26701" style="mask-type:alpha" maskUnits="userSpaceOnUse" x="0" y="0" width="16" height="16">
<path d="M6.80865 1.30286C8.25378 1.25558 9.66298 1.75966 10.7501 2.71301C11.8371 3.66636 12.5204 4.99775 12.6622 6.43665C12.8039 7.87563 12.393 9.31492 11.5128 10.462L11.4796 10.505L11.5186 10.5441L14.4864 13.5138L14.4903 13.5167C14.5536 13.5804 14.6034 13.6564 14.6378 13.7394C14.6723 13.8227 14.6904 13.9119 14.6905 14.0021C14.6905 14.0925 14.6723 14.1822 14.6378 14.2657C14.6032 14.3492 14.5531 14.4255 14.4893 14.4894C14.4254 14.5533 14.3492 14.6042 14.2657 14.6388C14.1822 14.6734 14.0924 14.6915 14.002 14.6915C13.9116 14.6915 13.8219 14.6734 13.7383 14.6388C13.6548 14.6042 13.5787 14.5533 13.5147 14.4894L10.5049 11.4796L10.462 11.5128C9.31486 12.3931 7.87557 12.8039 6.43658 12.6622C4.99769 12.5205 3.66629 11.8372 2.71295 10.7501C1.7596 9.66304 1.25552 8.25384 1.3028 6.80872C1.35009 5.36354 1.94539 3.99034 2.96783 2.9679C3.99027 1.94546 5.36348 1.35015 6.80865 1.30286ZM7.84088 2.77063C7.00446 2.60433 6.13755 2.6894 5.34967 3.01575C4.56166 3.34215 3.88799 3.89543 3.41412 4.60461C2.94043 5.31372 2.68756 6.14735 2.68756 7.00012C2.68874 8.14348 3.14373 9.23949 3.95221 10.048C4.76069 10.8564 5.85673 11.3114 7.00006 11.3126C7.85282 11.3126 8.68648 11.0598 9.39557 10.5861C10.1047 10.1122 10.658 9.4385 10.9844 8.65051C11.3108 7.86251 11.396 6.99487 11.2296 6.15833C11.0631 5.32193 10.6519 4.55334 10.0489 3.95032C9.44584 3.34742 8.67724 2.93699 7.84088 2.77063Z" fill="#2F2F37" stroke="#1A1A1A" stroke-width="0.125"/>
</mask>
<g mask="url(#mask0_26_26701)">
<rect width="16" height="16" fill="#1E1E24"/>
</g>
</svg>
