<svg width="16" height="16" viewBox="0 0 16 16" fill="none" xmlns="http://www.w3.org/2000/svg">
<mask id="mask0_26_26713" style="mask-type:alpha" maskUnits="userSpaceOnUse" x="0" y="0" width="16" height="16">
<path d="M15.1875 6.00003C15.11 5.76085 14.9633 5.55004 14.7659 5.39428C14.5686 5.23852 14.3294 5.14482 14.0788 5.12503L10.5419 4.83941L9.1769 1.53878C9.08097 1.3055 8.91788 1.106 8.70834 0.965602C8.49879 0.825203 8.25225 0.750244 8.00002 0.750244C7.74779 0.750244 7.50125 0.825203 7.29171 0.965602C7.08217 1.106 6.91908 1.3055 6.82315 1.53878L5.4594 4.84003L1.92252 5.12503C1.67141 5.14574 1.43202 5.24021 1.23444 5.39656C1.03686 5.55292 0.889898 5.76418 0.812025 6.00381C0.734153 6.24344 0.728844 6.50074 0.796766 6.74337C0.864687 6.98601 1.00281 7.20316 1.19377 7.36753L3.89252 9.69503L3.06752 13.1763C3.00735 13.4217 3.02159 13.6795 3.10842 13.9168C3.19524 14.1542 3.35074 14.3603 3.5551 14.509C3.75946 14.6576 4.00343 14.7421 4.25597 14.7516C4.5085 14.7612 4.75815 14.6953 4.97315 14.5625L8.00002 12.6994L11.0269 14.5625C11.2418 14.6945 11.4911 14.7596 11.7431 14.7498C11.9951 14.74 12.2385 14.6557 12.4426 14.5075C12.6466 14.3592 12.8021 14.1538 12.8893 13.9172C12.9765 13.6805 12.9916 13.4233 12.9325 13.1782L12.1075 9.6969L14.8063 7.3694C14.9984 7.20463 15.1372 6.98649 15.2051 6.74267C15.2729 6.49886 15.2668 6.24037 15.1875 6.00003ZM10.7831 8.85628C10.6791 8.946 10.6017 9.06258 10.5593 9.19329C10.517 9.32401 10.5114 9.46384 10.5431 9.59753L11.3488 13L8.39315 11.1825C8.27493 11.1098 8.13884 11.0712 8.00002 11.0712C7.86121 11.0712 7.72512 11.1098 7.6069 11.1825L4.65127 13L5.4569 9.60003C5.48863 9.46635 5.48303 9.32651 5.44071 9.19579C5.39838 9.06508 5.32096 8.9485 5.2169 8.85878L2.57502 6.57753L6.03752 6.29815C6.17531 6.28708 6.30736 6.23815 6.41909 6.15675C6.53082 6.07536 6.61787 5.96467 6.67065 5.8369L8.00002 2.61815L9.3294 5.8369C9.38217 5.96467 9.46923 6.07536 9.58096 6.15675C9.69269 6.23815 9.82473 6.28708 9.96252 6.29815L13.425 6.57753L10.7831 8.85628Z" fill="#1A1A1A"/>
</mask>
<g mask="url(#mask0_26_26713)">
<rect width="16" height="16" fill="#1E1E24"/>
</g>
</svg>
