<svg width="16" height="16" viewBox="0 0 16 16" fill="none" xmlns="http://www.w3.org/2000/svg">
<mask id="mask0_26_26731" style="mask-type:alpha" maskUnits="userSpaceOnUse" x="0" y="0" width="16" height="16">
<path d="M10.5981 2.88188C10.6597 2.69276 10.7938 2.53583 10.971 2.44558C11.1482 2.35533 11.354 2.33916 11.5431 2.40063L11.75 2.4675V2.25C11.75 2.05109 11.829 1.86032 11.9697 1.71967C12.1103 1.57902 12.3011 1.5 12.5 1.5C12.6989 1.5 12.8897 1.57902 13.0303 1.71967C13.171 1.86032 13.25 2.05109 13.25 2.25V2.4675L13.4569 2.40063C13.5511 2.36809 13.6508 2.35465 13.7502 2.36109C13.8496 2.36753 13.9468 2.39372 14.036 2.43813C14.1252 2.48253 14.2047 2.54427 14.2697 2.61973C14.3348 2.69518 14.3842 2.78285 14.415 2.87761C14.4458 2.97237 14.4574 3.07232 14.4492 3.17162C14.4409 3.27092 14.413 3.36758 14.3669 3.45595C14.3209 3.54433 14.2577 3.62264 14.1811 3.68633C14.1045 3.75002 14.0159 3.7978 13.9206 3.82688L13.7138 3.89438L13.8388 4.07063C13.8999 4.15006 13.9445 4.24095 13.9699 4.33791C13.9953 4.43488 14.001 4.53595 13.9867 4.63517C13.9724 4.73438 13.9383 4.82972 13.8865 4.91554C13.8348 5.00137 13.7663 5.07594 13.6852 5.13485C13.6041 5.19377 13.512 5.23582 13.4144 5.25854C13.3167 5.28126 13.2155 5.28418 13.1168 5.26712C13.018 5.25006 12.9236 5.21337 12.8393 5.15923C12.7549 5.10508 12.6823 5.03458 12.6256 4.95188L12.5 4.77625L12.375 4.95188C12.3184 5.03458 12.2457 5.10508 12.1614 5.15923C12.077 5.21337 11.9826 5.25006 11.8839 5.26712C11.7851 5.28418 11.6839 5.28126 11.5863 5.25854C11.4886 5.23582 11.3965 5.19377 11.3154 5.13485C11.2343 5.07594 11.1659 5.00137 11.1141 4.91554C11.0623 4.82972 11.0282 4.73438 11.0139 4.63517C10.9996 4.53595 11.0053 4.43488 11.0307 4.33791C11.0561 4.24095 11.1007 4.15006 11.1619 4.07063L11.2869 3.89438L11.08 3.82688C10.9863 3.79647 10.8995 3.74791 10.8246 3.68397C10.7497 3.62002 10.6881 3.54194 10.6433 3.45419C10.5986 3.36644 10.5716 3.27073 10.5638 3.17253C10.556 3.07433 10.5677 2.97556 10.5981 2.88188ZM14.75 8C14.75 9.33502 14.3541 10.6401 13.6124 11.7501C12.8707 12.8601 11.8165 13.7253 10.5831 14.2362C9.34971 14.7471 7.99251 14.8808 6.68314 14.6203C5.37377 14.3599 4.17104 13.717 3.22703 12.773C2.28303 11.829 1.64015 10.6262 1.3797 9.31686C1.11925 8.00749 1.25292 6.65029 1.76382 5.41689C2.27471 4.18349 3.13987 3.12928 4.2499 2.38758C5.35994 1.64588 6.66498 1.25 8 1.25C8.37693 1.24992 8.75322 1.28107 9.125 1.34313C9.32118 1.37628 9.49615 1.486 9.61143 1.64816C9.72671 1.81032 9.77284 2.01164 9.73969 2.20781C9.70654 2.40399 9.59681 2.57896 9.43465 2.69424C9.27249 2.80952 9.07118 2.85565 8.875 2.8225C8.58584 2.77423 8.29317 2.74998 8 2.75C7.01445 2.74933 6.04864 3.02629 5.21321 3.54915C4.37778 4.07201 3.70653 4.81962 3.27635 5.70633C2.84617 6.59305 2.67446 7.583 2.78089 8.5628C2.88732 9.54259 3.26759 10.4726 3.87813 11.2463C4.36425 10.628 4.98386 10.1276 5.69063 9.7825C5.2402 9.32637 4.93472 8.74722 4.81262 8.1179C4.69053 7.48859 4.75726 6.83722 5.00444 6.24574C5.25162 5.65426 5.6682 5.1491 6.20177 4.79379C6.73535 4.43848 7.36208 4.2489 8.00313 4.2489C8.64418 4.2489 9.27091 4.43848 9.80448 4.79379C10.3381 5.1491 10.7546 5.65426 11.0018 6.24574C11.249 6.83722 11.3157 7.48859 11.1936 8.1179C11.0715 8.74722 10.7661 9.32637 10.3156 9.7825C11.0224 10.1276 11.642 10.628 12.1281 11.2463C12.8573 10.3216 13.2527 9.17761 13.25 8C13.25 7.70683 13.2257 7.41417 13.1775 7.125C13.1444 6.92882 13.1905 6.72751 13.3058 6.56535C13.421 6.40319 13.596 6.29346 13.7922 6.26031C13.9884 6.22716 14.1897 6.2733 14.3518 6.38857C14.514 6.50385 14.6237 6.67882 14.6569 6.875C14.719 7.24678 14.7501 7.62307 14.75 8ZM8 9.25C8.34612 9.25 8.68446 9.14736 8.97225 8.95507C9.26004 8.76278 9.48434 8.48947 9.61679 8.1697C9.74925 7.84993 9.7839 7.49806 9.71638 7.15859C9.64885 6.81912 9.48218 6.50731 9.23744 6.26256C8.9927 6.01782 8.68088 5.85115 8.34141 5.78363C8.00194 5.7161 7.65008 5.75076 7.33031 5.88321C7.01054 6.01566 6.73722 6.23997 6.54493 6.52775C6.35264 6.81554 6.25 7.15388 6.25 7.5C6.25 7.96413 6.43438 8.40925 6.76257 8.73744C7.09075 9.06563 7.53587 9.25 8 9.25ZM8 13.25C9.08464 13.2508 10.1426 12.9137 11.0269 12.2856C10.6787 11.8096 10.2232 11.4223 9.69722 11.1554C9.17128 10.8885 8.5898 10.7493 8 10.7493C7.4102 10.7493 6.82872 10.8885 6.30279 11.1554C5.77685 11.4223 5.3213 11.8096 4.97313 12.2856C5.85741 12.9137 6.91536 13.2508 8 13.25Z" fill="#1A1A1A"/>
</mask>
<g mask="url(#mask0_26_26731)">
<rect width="16" height="16" fill="#1E1E24"/>
</g>
</svg>
